<?xml version="1.0" encoding="UTF-8" standalone="no"?>
<svg
   version="1.1"
   style="display:block"
   viewBox="0 0 2203.8492 251.68037"
   width="1076.0983"
   height="122.88792"
   preserveAspectRatio="none"
   id="svg168"
   sodipodi:docname="bitcoin-pocxplorer-white.svg"
   inkscape:version="1.4.4 (dcaf3e7, 2026-05-05)"
   xml:space="preserve"
   inkscape:export-filename="bitcoin-pocx-logo-only.png"
   inkscape:export-xdpi="96"
   inkscape:export-ydpi="96"
   xmlns:inkscape="http://www.inkscape.org/namespaces/inkscape"
   xmlns:sodipodi="http://sodipodi.sourceforge.net/DTD/sodipodi-0.dtd"
   xmlns:xlink="http://www.w3.org/1999/xlink"
   xmlns="http://www.w3.org/2000/svg"
   xmlns:svg="http://www.w3.org/2000/svg"><sodipodi:namedview
     id="namedview168"
     pagecolor="#505050"
     bordercolor="#eeeeee"
     borderopacity="1"
     inkscape:showpageshadow="0"
     inkscape:pageopacity="0"
     inkscape:pagecheckerboard="0"
     inkscape:deskcolor="#505050"
     showgrid="false"
     showguides="true"
     inkscape:zoom="1.4142136"
     inkscape:cx="440.52752"
     inkscape:cy="-106.77312"
     inkscape:window-width="3840"
     inkscape:window-height="2126"
     inkscape:window-x="-11"
     inkscape:window-y="-11"
     inkscape:window-maximized="1"
     inkscape:current-layer="g4"
     inkscape:lockguides="false" /><defs
     id="defs10"><linearGradient
       id="linearGradient230645"
       gradientUnits="userSpaceOnUse"
       x1="168.853"
       y1="434.686"
       x2="334.582"
       y2="712.04199"><stop
         class="stop0"
         offset="0"
         stop-opacity="1"
         stop-color="rgb(255,160,0)"
         id="stop230644" /><stop
         class="stop1"
         offset="1"
         stop-opacity="1"
         stop-color="rgb(255,123,16)"
         id="stop230645"
         style="stop-color:#62ff10;stop-opacity:1;" /></linearGradient><rect
       x="459"
       y="399.75"
       width="47.25"
       height="32.625"
       id="rect230642" /><linearGradient
       id="linearGradient218"
       inkscape:collect="always"><stop
         style="stop-color:#000000;stop-opacity:1;"
         offset="0"
         id="stop218" /><stop
         style="stop-color:#000000;stop-opacity:0;"
         offset="1"
         id="stop219" /></linearGradient><linearGradient
       id="linearGradient216"
       inkscape:collect="always"><stop
         style="stop-color:#000000;stop-opacity:1;"
         offset="0"
         id="stop216" /><stop
         style="stop-color:#000000;stop-opacity:0;"
         offset="1"
         id="stop217" /></linearGradient><linearGradient
       id="Gradient4"
       gradientUnits="userSpaceOnUse"
       x1="168.853"
       y1="434.686"
       x2="334.582"
       y2="712.04199"><stop
         class="stop0"
         offset="0"
         stop-opacity="1"
         stop-color="rgb(255,160,0)"
         id="stop7" /><stop
         class="stop1"
         offset="1"
         stop-opacity="1"
         stop-color="rgb(255,123,16)"
         id="stop8" /></linearGradient><linearGradient
       inkscape:collect="always"
       xlink:href="#Gradient4"
       id="linearGradient177"
       x1="1393.2006"
       y1="162.00571"
       x2="1494.2831"
       y2="338.38348"
       gradientUnits="userSpaceOnUse"
       gradientTransform="translate(1.7182797,334.34795)" /><linearGradient
       inkscape:collect="always"
       xlink:href="#Gradient4"
       id="linearGradient206"
       x1="1502.5184"
       y1="95.617188"
       x2="1641.5323"
       y2="315.03336"
       gradientUnits="userSpaceOnUse"
       gradientTransform="matrix(0.82878356,0,0,0.82878356,271.84992,431.17219)" /><linearGradient
       inkscape:collect="always"
       xlink:href="#linearGradient218"
       id="linearGradient219"
       x1="1720.7513"
       y1="482.67197"
       x2="1822.6241"
       y2="672.42853"
       gradientUnits="userSpaceOnUse" /><linearGradient
       inkscape:collect="always"
       xlink:href="#linearGradient216"
       id="linearGradient220"
       gradientUnits="userSpaceOnUse"
       x1="1359.3101"
       y1="584.66888"
       x2="1509.7637"
       y2="584.66888" /><linearGradient
       inkscape:collect="always"
       xlink:href="#Gradient4"
       id="linearGradient224"
       x1="1730.2009"
       y1="493.65787"
       x2="1829.9738"
       y2="676.42334"
       gradientUnits="userSpaceOnUse"
       gradientTransform="translate(8.3995681)" /><linearGradient
       inkscape:collect="always"
       xlink:href="#Gradient4"
       id="linearGradient227"
       x1="91.969528"
       y1="369.14413"
       x2="413.7424"
       y2="781.22095"
       gradientUnits="userSpaceOnUse"
       gradientTransform="matrix(0.9507757,0,0,0.94479909,12.76227,28.05418)" /><linearGradient
       inkscape:collect="always"
       xlink:href="#Gradient4"
       id="linearGradient228"
       gradientUnits="userSpaceOnUse"
       x1="141.33806"
       y1="383.2753"
       x2="375.8544"
       y2="760.19427" /><linearGradient
       inkscape:collect="always"
       xlink:href="#Gradient4"
       id="linearGradient230"
       x1="156.57239"
       y1="370.31616"
       x2="360.23517"
       y2="760.96509"
       gradientUnits="userSpaceOnUse" /><linearGradient
       inkscape:collect="always"
       xlink:href="#Gradient4"
       id="linearGradient232"
       x1="169.24036"
       y1="383.54715"
       x2="342.57224"
       y2="762.9726"
       gradientUnits="userSpaceOnUse" /><linearGradient
       inkscape:collect="always"
       xlink:href="#Gradient4"
       id="linearGradient234"
       x1="1471.7601"
       y1="777.11169"
       x2="1478.121"
       y2="791.05048"
       gradientUnits="userSpaceOnUse"
       gradientTransform="matrix(1,0,0,-1,-5.301592,1547.5877)" /><linearGradient
       inkscape:collect="always"
       xlink:href="#Gradient4"
       id="linearGradient235"
       gradientUnits="userSpaceOnUse"
       gradientTransform="rotate(180,1110.5151,774.11235)"
       x1="1471.7601"
       y1="777.11169"
       x2="1478.121"
       y2="791.05048" /><linearGradient
       inkscape:collect="always"
       xlink:href="#Gradient4"
       id="linearGradient237"
       x1="1092.98"
       y1="720.56104"
       x2="1123.02"
       y2="801.45892"
       gradientUnits="userSpaceOnUse" /><linearGradient
       inkscape:collect="always"
       xlink:href="#Gradient4"
       id="linearGradient1"
       gradientUnits="userSpaceOnUse"
       gradientTransform="matrix(0.82878356,0,0,0.82878356,271.84992,431.17219)"
       x1="1502.5184"
       y1="95.617188"
       x2="1641.5323"
       y2="315.03336" /></defs><g
     id="g4"
     inkscape:label="Logo"
     transform="translate(-484.7762,-489.77417)"
     style="display:inline"><g
       id="g3"
       style="display:inline"
       inkscape:label="PoCXLogo"><path
         d="M 497.05941,672.74257 537.84483,501.6184 q 14.59295,-2.8687 30.55789,-3.86651 15.96494,-0.99781 29.31063,-0.99781 15.34131,0 26.44193,3.24288 11.10062,3.24287 18.08528,8.6061 6.98466,5.36322 10.47699,12.59733 3.49233,7.23411 3.49233,15.46603 0,5.61267 -1.24726,11.72425 -1.12254,6.11158 -4.61487,12.09843 -3.3676,5.98685 -9.35445,11.35007 -5.98686,5.36322 -15.71549,9.72864 11.4748,5.11377 16.83802,13.96932 5.36322,8.85555 5.36322,19.58199 0,12.22316 -4.86432,23.57323 -4.86431,11.35007 -15.59075,20.20562 -10.72645,8.73083 -27.81392,13.96932 -17.08747,5.2385 -41.65851,5.2385 -15.3413,0 -31.43097,-1.24726 -16.08966,-1.24726 -29.06117,-4.11596 z m 45.89919,-28.31282 q 4.11596,0.74835 10.35227,1.12253 6.2363,0.37418 11.59952,0.37418 7.60829,0 15.21658,-1.12253 7.60829,-1.12254 13.59514,-4.11596 5.98686,-3.11816 9.72864,-8.48138 3.86651,-5.36322 3.86651,-13.84459 0,-3.61706 -1.37199,-7.10939 -1.37199,-3.61705 -4.49014,-6.36103 -2.99343,-2.8687 -7.98247,-4.61486 -4.98904,-1.87089 -11.9737,-1.87089 H 553.9345 Z m 18.45946,-75.83345 h 24.94522 q 15.3413,0 22.82487,-6.61049 7.60829,-6.7352 7.60829,-15.84021 0,-4.86431 -2.24507,-8.35664 -2.12035,-3.49233 -5.7374,-5.48795 -3.49233,-1.99562 -8.1072,-2.8687 -4.61486,-0.99781 -9.47918,-0.99781 -5.36322,0 -11.4748,0.37418 -6.11157,0.37418 -9.22973,0.99781 z"
         id="text202"
         style="font-style:italic;font-weight:bold;font-size:255.439px;font-family:Ubuntu;-inkscape-font-specification:'Ubuntu Bold Italic';letter-spacing:-5.12006px;fill:#ffffff;stroke-width:0.220638"
         inkscape:label="B"
         transform="scale(0.97528824,1.0253379)"
         aria-label="B" /><path
         d="m 648.93947,675.86072 31.92987,-134.32998 h 38.16618 L 686.73147,675.86072 Z M 684.4864,505.98381 q 0,-5.36322 2.12034,-10.10281 2.24507,-4.73959 5.7374,-8.1072 3.61706,-3.49233 8.35665,-5.48795 4.73959,-2.12034 10.10281,-2.12034 7.85774,0 14.21877,4.73959 6.48576,4.73959 6.48576,14.46823 0,5.36322 -2.24507,10.10281 -2.12035,4.73959 -5.7374,8.23192 -3.49233,3.3676 -8.23192,5.48795 -4.73959,1.99561 -10.10282,1.99561 -7.85774,0 -14.34349,-4.73959 -6.36103,-4.73959 -6.36103,-14.46822 z"
         id="text201"
         style="font-style:italic;font-weight:bold;font-size:255.439px;font-family:Ubuntu;-inkscape-font-specification:'Ubuntu Bold Italic';letter-spacing:-5.12006px;fill:#ffffff;stroke-width:0.220638"
         inkscape:label="i1"
         transform="scale(0.97528824,1.0253379)"
         aria-label="i" /><path
         d="m 727.66736,638.56762 q 0.4989,-11.72425 3.61705,-24.82049 l 24.94522,-105.76771 39.66289,-6.11157 -9.72864,39.66289 h 42.40687 l -7.73302,31.18152 h -42.15741 l -11.22535,46.897 q -1.49671,5.86212 -1.87089,10.97589 -0.12472,0.87309 0,1.87089 0.12473,3.99124 1.37199,6.98466 1.74616,3.74179 5.7374,5.86213 3.99123,1.99562 11.10062,1.99562 6.11158,0 11.84898,-1.12254 5.86212,-1.24726 11.72425,-3.24288 l 2.74397,29.06118 q -7.60829,2.8687 -16.58857,4.86432 -8.85555,2.12034 -21.20343,2.12034 -17.58638,0 -27.31501,-5.2385 -9.72863,-5.23849 -13.71987,-14.34349 -3.61705,-8.1072 -3.61705,-18.33474 0,-1.24726 0,-2.49452 z"
         id="text200"
         style="font-style:italic;font-weight:bold;font-size:255.439px;font-family:Ubuntu;-inkscape-font-specification:'Ubuntu Bold Italic';letter-spacing:-5.12006px;fill:#ffffff;stroke-width:0.220638"
         inkscape:label="t1"
         transform="scale(0.97528824,1.0253379)"
         aria-label="t" /><path
         d="m 827.02752,622.22851 q 0,-17.33693 5.61268,-32.67823 5.61267,-15.34131 16.08966,-26.81611 10.47699,-11.4748 25.31939,-18.08528 14.96713,-6.73521 33.42659,-6.73521 11.4748,0 20.45508,2.24507 9.105,2.12034 16.58856,5.7374 l -13.09623,29.56008 q -5.11377,-1.99562 -10.60172,-3.61706 -5.48795,-1.74616 -13.34569,-1.74616 -19.20781,0 -30.18371,12.97151 -10.97589,12.84679 -10.97589,35.04803 0,12.97151 5.61267,21.0787 5.61267,8.1072 20.70453,8.1072 7.35884,0 14.21877,-1.49672 6.98466,-1.62143 12.34788,-3.8665 l 2.8687,30.30843 q -7.10939,2.8687 -15.71548,4.98904 -8.6061,2.24507 -20.82926,2.24507 -15.84021,0 -26.8161,-4.61486 -10.9759,-4.61487 -18.21001,-12.34788 -7.10939,-7.85774 -10.35226,-18.33473 -3.11816,-10.47699 -3.11816,-21.95179 z"
         id="text199"
         style="font-style:italic;font-weight:bold;font-size:255.439px;font-family:Ubuntu;-inkscape-font-specification:'Ubuntu Bold Italic';letter-spacing:-5.12006px;fill:#ffffff;stroke-width:0.220638"
         inkscape:label="c1"
         transform="scale(0.97528824,1.0253379)"
         aria-label="c" /><path
         d="m 945.2843,623.97467 q 0,-15.34131 4.98904,-30.55789 4.98904,-15.3413 14.59295,-27.56446 9.72864,-12.34788 23.82268,-20.0809 14.09403,-7.85774 32.17933,-7.85774 13.221,0 23.3238,4.11596 10.1028,4.11596 16.5885,11.4748 6.6105,7.35884 9.8534,17.46165 3.3676,10.10281 3.3676,22.32597 0,15.3413 -4.8643,30.68261 -4.8643,15.34131 -14.3435,27.68919 -9.3545,12.22315 -23.5732,20.0809 -14.0941,7.73301 -32.80299,7.73301 -13.59515,0 -23.57323,-4.11596 -9.97809,-4.11596 -16.46384,-11.4748 -6.48576,-7.48356 -9.85336,-17.46165 -3.24288,-10.10281 -3.24288,-22.45069 z m 37.792,-3.74178 q 0,12.97151 3.99123,20.0809 4.11596,6.98466 14.84237,6.98466 8.4814,0 14.8424,-4.86432 6.3611,-4.86432 10.7265,-12.22315 4.3654,-7.48357 6.4857,-16.21439 2.2451,-8.85556 2.2451,-16.83802 0,-12.97152 -4.116,-19.95618 -4.1159,-7.10938 -14.8424,-7.10938 -8.4813,0 -14.8424,4.86432 -6.36099,4.86431 -10.7264,12.34788 -4.24069,7.35883 -6.48576,16.21439 -2.12034,8.73082 -2.12034,16.71329 z"
         id="text198"
         style="font-style:italic;font-weight:bold;font-size:255.439px;font-family:Ubuntu;-inkscape-font-specification:'Ubuntu Bold Italic';letter-spacing:-5.12006px;fill:#ffffff;stroke-width:0.220638"
         inkscape:label="o"
         transform="scale(0.97528824,1.0253379)"
         aria-label="o" /><path
         d="m 1081.8626,675.86072 31.9298,-134.32998 h 38.1662 l -32.304,134.32998 z m 35.5469,-169.87691 q 0,-5.36322 2.1203,-10.10281 2.2451,-4.73959 5.7374,-8.1072 3.6171,-3.49233 8.3567,-5.48795 4.7396,-2.12034 10.1028,-2.12034 7.8577,0 14.2188,4.73959 6.4857,4.73959 6.4857,14.46823 0,5.36322 -2.245,10.10281 -2.1204,4.73959 -5.7374,8.23192 -3.4924,3.3676 -8.232,5.48795 -4.7396,1.99561 -10.1028,1.99561 -7.8577,0 -14.3435,-4.73959 -6.361,-4.73959 -6.361,-14.46822 z"
         id="text197"
         style="font-style:italic;font-weight:bold;font-size:255.439px;font-family:Ubuntu;-inkscape-font-specification:'Ubuntu Bold Italic';letter-spacing:-5.12006px;fill:#ffffff;stroke-width:0.220638"
         inkscape:label="i2"
         transform="scale(0.97528824,1.0253379)"
         aria-label="i" /><path
         d="m 1152.608,675.86072 30.9321,-128.2184 q 4.3654,-1.24726 9.6039,-2.8687 5.2385,-1.74617 11.7243,-3.11816 6.4857,-1.37198 14.4682,-2.24506 8.1072,-0.99781 18.3347,-0.99781 30.1837,0 41.4091,17.46165 6.7352,10.47699 6.7352,25.56884 0,9.97809 -2.8687,21.82706 l -17.3369,72.59058 h -38.1662 l 16.9627,-70.96914 q 1.4967,-6.61048 2.3698,-12.84678 0.3742,-2.99343 0.3742,-5.61268 0,-2.99342 -0.4989,-5.48794 -0.9978,-4.73959 -4.7396,-7.60829 -3.7418,-2.99343 -11.3501,-2.99343 -7.3588,0 -15.0918,1.49671 l -24.6958,104.02155 z"
         id="text196"
         style="font-style:italic;font-weight:bold;font-size:255.439px;font-family:Ubuntu;-inkscape-font-specification:'Ubuntu Bold Italic';letter-spacing:-5.12006px;fill:#ffffff;stroke-width:0.220638"
         inkscape:label="n"
         transform="scale(0.97528824,1.0253379)"
         aria-label="n" /><path
         d="m 1302.6459,616.86529 8.3567,-34.54913 h 74.0873 l -8.4814,34.54913 z"
         id="text195"
         style="font-style:italic;font-weight:bold;font-size:255.439px;font-family:Ubuntu;-inkscape-font-specification:'Ubuntu Bold Italic';letter-spacing:-5.12006px;fill:#ffffff;stroke-width:0.220638"
         inkscape:label="-"
         transform="scale(0.97528824,1.0253379)"
         aria-label="-" /><path
         d="M 1380.2762,675.86072 1421.81,501.36894 q 13.8446,-2.49452 26.1924,-3.49233 12.4726,-1.12253 23.4485,-1.12253 16.0897,0 28.9365,3.49233 12.9715,3.49233 21.827,9.97808 8.9803,6.48576 13.8446,15.96494 4.8644,9.47918 4.8644,21.20343 0,19.20782 -7.4836,32.42878 -7.3588,13.22097 -20.4551,21.45289 -12.9715,8.23192 -30.6826,11.84897 -17.5864,3.49233 -38.1662,3.49233 h -9.9781 l -14.3435,59.24489 z m 61.9888,-92.67147 h 9.9781 q 10.7265,0 19.4573,-1.62144 8.8555,-1.74617 15.0918,-5.48795 6.3611,-3.86651 9.7287,-9.85336 3.4923,-6.11158 3.4923,-14.71768 0,-11.47479 -8.3566,-16.33911 -8.232,-4.86432 -23.5733,-4.86432 -4.3654,0 -7.4835,0.24945 -2.9935,0.24946 -5.9869,0.49891 z"
         id="text194"
         style="font-style:italic;font-weight:bold;font-size:255.439px;font-family:Ubuntu;-inkscape-font-specification:'Ubuntu Bold Italic';letter-spacing:-5.12006px;fill:url(#linearGradient177);stroke-width:0.220638"
         inkscape:label="P"
         transform="scale(0.97528824,1.0253379)"
         aria-label="P" /><g
         id="g1"
         transform="translate(19.383007)"
         style="display:inline"
         inkscape:label="o"><path
           id="path203"
           style="display:inline;fill:none;fill-opacity:1;stroke:url(#linearGradient1);stroke-width:20.8644;stroke-linecap:butt;stroke-linejoin:bevel;stroke-dasharray:none;paint-order:normal"
           inkscape:label="LetterO"
           d="m 1516.4694,656.05581 c -0.734,-1.05493 -1.1489,-1.55184 -1.5042,-2.0218 -9.4252,-12.46549 -14.54,-27.67984 -14.54,-43.33974 0,-39.68749 32.1723,-71.86055 71.8589,-71.86053 39.6865,4e-5 71.8588,32.17308 71.8588,71.86053 v 0 c 0,39.68745 -32.1723,71.86051 -71.8588,71.86054 -11.1638,10e-6 -22.1679,-2.60106 -32.1422,-7.58943 -0.3845,-0.19229 -0.5274,-0.22013 -1.0688,-0.50751"
           sodipodi:nodetypes="csssssssc" /><path
           style="display:inline;fill:#ffffff;fill-opacity:1;stroke:none;stroke-width:0;stroke-linecap:butt;stroke-linejoin:bevel;stroke-dasharray:none;stroke-dashoffset:0;stroke-opacity:1;paint-order:normal"
           d="m 1548.1724,647.68576 2.6407,2.81528 11.1669,9.00954 3.5204,2.11151 2.368,-4.65611 -15.344,-12.17628 z"
           id="path24"
           sodipodi:nodetypes="ccccccc"
           transform="translate(-19.383007)"
           inkscape:label="PlatterOuterWhiteFill" /><path
           id="path22"
           style="display:none;fill:none;fill-opacity:1;stroke:url(#linearGradient206);stroke-width:20.8644;stroke-dasharray:none"
           inkscape:label="LetterOCut"
           d="m 1538.9931,674.37787 a 71.858864,71.860535 0 0 1 -22.9436,-18.94584" /><path
           id="path207"
           style="fill:#ffffff;fill-opacity:1;stroke:#000000;stroke-width:5.29788;stroke-linecap:butt;stroke-dasharray:none;stroke-opacity:1;paint-order:normal"
           inkscape:label="PlatterOuter"
           d="m 1530.9721,646.24218 c -0.5264,-0.77194 -1.0962,-1.43259 -1.5493,-2.02154 -7.3383,-9.53853 -11.3367,-21.25291 -11.3367,-33.32928 0,-30.1881 24.4717,-54.66039 54.6591,-54.6604 30.1874,-5e-5 54.6592,24.47226 54.6592,54.6604 v 0 c 0,30.18814 -24.4718,54.66045 -54.6592,54.6604 -8.8721,-10e-6 -17.6108,-2.15973 -25.4615,-6.29265"
           sodipodi:nodetypes="cssssssc" /><path
           id="path23"
           style="display:none;fill:none;fill-opacity:1;stroke:#000000;stroke-width:5.29788;stroke-dasharray:none;stroke-opacity:1"
           inkscape:label="PlatterOuterCut"
           d="m 1547.2837,659.25911 a 54.659115,54.6604 0 0 1 -16.4636,-13.29694" /><path
           style="display:inline;fill:#000000;fill-opacity:1;stroke:none;stroke-width:0;stroke-dasharray:none;stroke-dashoffset:0;stroke-opacity:1;paint-order:normal"
           d="m 1536.941,669.84347 22.1893,-38.63635 -37.8523,25.84458 c 0,0 -9.5864,6.97657 -12.4363,9.31293 -3.5181,2.88415 -15.3858,12.66082 -5.3804,22.66648 9.7949,9.79505 21.301,-0.21743 24.9606,-5.75441 2.8592,-4.32587 8.5191,-13.43323 8.5191,-13.43323 z"
           id="path209"
           sodipodi:nodetypes="cccsssc"
           inkscape:label="PlatterArm" /><path
           style="display:inline;fill:#ffffff;fill-opacity:1;stroke:none;stroke-width:8.68764;stroke-dasharray:none;stroke-opacity:1"
           d="m 1546.2853,645.00118 -16.5336,24.72677 -6.725,-6.70885 z"
           id="path211"
           inkscape:transform-center-x="10.112544"
           inkscape:transform-center-y="10.713964"
           inkscape:label="PlatterArmDetail" /><path
           id="path210"
           style="fill:#ffffff;stroke-width:4.70002"
           inkscape:label="PlatterArmCircle"
           transform="scale(-1,1)"
           d="m -1508.6737,679.17175 a 5.0371118,5.0371118 0 0 1 -5.0371,5.03711 5.0371118,5.0371118 0 0 1 -5.0371,-5.03711 5.0371118,5.0371118 0 0 1 5.0371,-5.03711 5.0371118,5.0371118 0 0 1 5.0371,5.03711 z" /><path
           id="path208"
           style="display:block;fill:#ffffff;stroke:#000000;stroke-width:14.0048"
           inkscape:label="PlatterCenter"
           d="m 1585.1475,611.05762 a 12.028322,12.028604 0 0 1 -12.0284,12.0286 12.028322,12.028604 0 0 1 -12.0283,-12.0286 12.028322,12.028604 0 0 1 12.0283,-12.02861 12.028322,12.028604 0 0 1 12.0284,12.02861 z" /></g><path
         d="m 1729.5065,604.39268 q 0,-19.95617 6.9847,-39.66289 7.1094,-19.70672 20.7045,-35.04803 13.7199,-15.46603 33.4266,-25.19467 19.8315,-9.72863 45.6497,-9.72863 12.2232,0 24.0722,2.8687 11.9737,2.74397 24.9452,9.85336 l -14.3435,30.93207 q -10.7264,-5.61268 -19.2078,-7.60829 -8.3567,-2.12035 -18.0853,-2.12035 -14.5929,0 -26.1925,5.98685 -11.5995,5.86213 -19.9561,15.96494 -8.232,9.97809 -12.5974,23.32378 -4.2407,13.22096 -4.2407,28.06336 0,22.4507 9.7287,32.67823 9.8533,10.22754 28.3128,10.22754 12.2231,0 22.5754,-2.49452 10.3523,-2.61925 19.3325,-6.73521 l 4.2407,32.55351 q -10.477,5.11377 -23.199,8.10719 -12.7221,3.11815 -31.1815,3.11815 -15.8402,0 -29.0612,-5.23849 -13.0962,-5.2385 -22.4507,-14.96713 -9.2297,-9.72863 -14.3435,-23.57323 -5.1138,-13.96932 -5.1138,-31.30624 z"
         id="text192"
         style="font-style:italic;font-weight:bold;font-size:255.439px;font-family:Ubuntu;-inkscape-font-specification:'Ubuntu Bold Italic';letter-spacing:-5.12006px;fill:url(#linearGradient224);stroke-width:0.220638"
         inkscape:label="C2"
         transform="scale(0.97528824,1.0253379)"
         aria-label="C" /><path
         d="m 1853.1503,675.86072 80.4483,-96.28853 -36.0458,-80.69777 h 43.9036 l 21.2034,54.63002 q 11.4748,-13.84459 22.2013,-27.93864 10.8511,-14.21877 19.7067,-26.69138 h 43.6541 q -7.3588,10.47699 -15.7155,21.57761 -8.2319,11.10062 -17.0875,22.20124 -8.7308,11.10062 -17.7111,21.70234 -8.9802,10.60172 -17.3369,20.0809 5.3632,11.9737 9.9781,22.70014 4.7396,10.72644 9.105,21.57761 4.3654,10.85117 8.4814,22.4507 4.1159,11.47479 8.3566,24.69576 h -42.6563 q -3.617,-10.9759 -6.4857,-19.33254 -2.8687,-8.48138 -5.6127,-15.71549 -2.6193,-7.35884 -5.488,-13.84459 -2.7439,-6.48576 -6.1115,-13.71987 l -51.3872,62.61249 z m 171.055,47.27118 42.4068,-176.73684 q 10.2276,-3.11816 23.3238,-5.48795 13.221,-2.49452 28.5623,-2.49452 14.3435,0 24.571,4.36541 10.3523,4.36541 16.9628,11.9737 6.7352,7.48357 9.8533,17.58638 3.2429,10.10281 3.2429,21.57761 0,18.70891 -6.1116,34.17494 -6.1115,15.34131 -16.9627,26.56666 -10.8512,11.22534 -26.0678,17.46165 -15.2165,6.2363 -33.0524,6.2363 -8.7308,0 -17.4616,-1.49671 l -11.4748,46.27337 z m 56.2514,-76.95599 q 4.3655,0.99781 10.7265,1.12254 9.9781,0 18.0853,-3.74178 8.2319,-3.74179 13.9693,-10.35227 5.7374,-6.61048 8.8555,-15.96494 3.2429,-9.35445 3.2429,-20.5798 0,-10.97589 -4.8643,-18.58418 -4.8643,-7.73302 -16.838,-7.73302 -8.2319,0 -15.3413,1.49671 z m 111.436,-26.8161 32.5535,-135.57724 39.5381,-6.11158 -35.5469,147.05204 q -0.9978,4.61486 -1.1225,8.48137 -0.1248,3.86651 1.3719,6.85994 1.6215,2.86869 5.2385,4.61486 3.7418,1.74616 10.3523,2.3698 l -7.6083,31.30624 q -18.0853,0 -28.4375,-4.73959 -10.3523,-4.49014 -14.8424,-12.72206 -4.3654,-7.98247 -4.3654,-18.21001 0,-10.60171 2.8687,-23.32377 z m 74.8911,4.61486 q 0,-15.34131 4.9891,-30.55789 4.989,-15.3413 14.5929,-27.56446 9.7286,-12.34788 23.8227,-20.0809 14.094,-7.85774 32.1793,-7.85774 13.221,0 23.3238,4.11596 10.1028,4.11596 16.5886,11.4748 6.6104,7.35884 9.8533,17.46165 3.3676,10.10281 3.3676,22.32597 0,15.3413 -4.8643,30.68261 -4.8643,15.34131 -14.3435,27.68919 -9.3545,12.22315 -23.5732,20.0809 -14.0941,7.73301 -32.803,7.73301 -13.5951,0 -23.5732,-4.11596 -9.9781,-4.11596 -16.4639,-11.4748 -6.4857,-7.48356 -9.8533,-17.46165 -3.2429,-10.10281 -3.2429,-22.45069 z m 37.792,-3.74178 q 0,12.97151 3.9912,20.0809 4.116,6.98466 14.8424,6.98466 8.4814,0 14.8424,-4.86432 6.3611,-4.86432 10.7265,-12.22315 4.3654,-7.48357 6.4857,-16.21439 2.2451,-8.85556 2.2451,-16.83802 0,-12.97152 -4.1159,-19.95618 -4.116,-7.10938 -14.8424,-7.10938 -8.4814,0 -14.8424,4.86432 -6.3611,4.86431 -10.7265,12.34788 -4.2407,7.35883 -6.4857,16.21439 -2.1204,8.73082 -2.1204,16.71329 z m 98.7138,55.62783 30.6826,-127.2206 q 10.9759,-3.61705 24.5711,-6.7352 13.7198,-3.24288 30.932,-3.24288 6.3611,0 14.0941,1.24726 7.8577,1.12253 13.7199,3.61706 l -11.2254,30.68261 q -5.1138,-1.24726 -10.1028,-2.3698 -4.989,-1.24726 -14.7177,-1.24726 -3.617,0 -7.9824,0.62363 -4.2407,0.62363 -7.1094,1.49672 l -24.6958,103.14846 z m 114.1799,-52.6344 q 0,-16.33912 5.7374,-31.68043 5.7374,-15.3413 16.2144,-27.19028 10.477,-11.84898 25.4441,-19.08309 14.9672,-7.35884 33.0525,-7.35884 8.9802,0 16.5885,2.61925 7.6083,2.49452 13.3457,7.35884 5.8621,4.86431 8.9803,11.9737 3.2429,6.98466 3.2429,15.84021 0,14.3435 -6.4858,24.32159 -6.361,9.97808 -17.7111,16.21439 -11.3501,6.2363 -26.9408,9.105 -15.5908,2.74397 -33.9255,2.74397 1.7462,10.72644 7.733,15.21658 5.9869,4.49014 19.0831,4.49014 8.2319,0 16.5886,-1.37199 8.4813,-1.49671 15.8402,-4.24068 l 2.8687,29.80953 q -7.1094,2.8687 -18.3348,5.11377 -11.1006,2.36979 -24.0721,2.36979 -15.8402,0 -26.8161,-4.49013 -10.8512,-4.49014 -17.5864,-12.09843 -6.7352,-7.73302 -9.8533,-17.96056 -2.9935,-10.22754 -2.9935,-21.70233 z m 38.5404,-21.20344 q 15.8402,-0.4989 25.5688,-2.61924 9.7287,-2.24507 15.0919,-5.2385 5.3632,-3.11815 7.1094,-6.61048 1.7461,-3.61706 1.7461,-7.48357 0,-11.9737 -13.7198,-11.9737 -12.9715,0 -22.8249,9.35446 -9.8534,9.22973 -12.9715,24.57103 z m 86.7401,73.83784 30.6826,-127.2206 q 10.9759,-3.61705 24.5711,-6.7352 13.7198,-3.24288 30.932,-3.24288 6.3611,0 14.0941,1.24726 7.8577,1.12253 13.7198,3.61706 l -11.2253,30.68261 q -5.1138,-1.24726 -10.1028,-2.3698 -4.9891,-1.24726 -14.7177,-1.24726 -3.617,0 -7.9825,0.62363 -4.2406,0.62363 -7.1093,1.49672 l -24.6958,103.14846 z"
         id="text191"
         style="font-style:italic;font-weight:bold;font-size:255.439px;font-family:Ubuntu;-inkscape-font-specification:'Ubuntu Bold Italic';letter-spacing:-2.31428px;fill:#ffffff;stroke-width:0.220638"
         inkscape:label="X"
         transform="scale(0.97528824,1.0253379)"
         aria-label="Xplorer" /></g><g
       id="g2"
       inkscape:label="BTCLogo"
       style="display:none"><path
         fill="#ffffff"
         d="m 244.847,393.404 c 99.572,-4.114 183.683,73.148 188.02,172.71 4.337,99.562 -72.736,183.846 -172.288,188.407 C 160.711,759.096 76.1006,681.724 71.7496,581.846 67.3986,481.968 144.96,397.531 244.847,393.404 Z"
         id="path12"
         inkscape:label="MiddleCircle"
         style="display:block" /><path
         fill="url(#Gradient4)"
         d="m 236.955,410.382 c 90.525,-8.48 170.722,58.179 178.936,148.728 8.213,90.55 -58.682,170.55 -149.256,178.497 C 176.439,745.52 96.8437,678.963 88.6647,588.791 80.4857,498.618 146.807,418.827 236.955,410.382 Z"
         id="path13"
         style="fill:url(#linearGradient228);stroke:none"
         inkscape:label="InnerCircle" /><ellipse
         style="display:inline;fill:none;fill-opacity:1;stroke:url(#linearGradient227);stroke-width:16.3166;stroke-dasharray:none"
         id="path226"
         cx="252.26649"
         cy="572.755"
         rx="187.9037"
         ry="186.7269"
         inkscape:label="OuterCircle"
         transform="matrix(0.9999983,0.00184726,0,0.99999999,0,0)" /><path
         fill="#ffffff"
         d="m 236.585,446.649 c 7.742,1.419 14.422,3.255 21.996,5.294 -1.033,9.311 -4.573,24.122 -6.583,33.707 l 16.532,3.993 c 2.661,-11.481 5.398,-22.944 8.21,-34.389 l 22.085,5.05 c -2.724,10.368 -5.379,23.599 -7.459,34.117 16.264,6.042 37.264,14.749 42.801,32.581 7.04,22.673 -3.046,43.329 -24.976,51.101 15.349,10.129 26.574,21.709 23.871,41.223 -6.564,47.385 -40.135,48.699 -77.46,44.691 -1.592,7.018 -6.097,28.98 -8.873,34.597 -3.169,0.964 -7.139,-0.219 -10.581,-0.857 l -10.855,-2.583 7.742,-36.504 -16.571,-3.143 c -3.407,10.422 -5.735,23.879 -9.009,35.324 -7.077,-1.819 -15.06,-3.106 -22.302,-4.439 3.093,-11.192 5.385,-24.613 7.639,-36.155 -14.22,-3.305 -28.472,-6.476 -42.752,-9.512 3.266,-8.708 6.657,-17.369 10.173,-25.979 15.547,4.039 23.158,9.324 27.13,-10.379 6.203,-30.757 14.32,-61.296 19.532,-92.212 2.009,-11.914 -16.389,-13.608 -24.585,-15.323 1.983,-7.35 3.777,-16.353 5.469,-23.9 13.41,2.22 28.052,5.545 41.462,8.372 2.695,-11.678 5.318,-22.843 7.364,-34.675 z"
         id="path14"
         inkscape:label="BOutline" /><path
         fill="#fe8a07"
         d="m 232.605,579.632 c 2.47,0.418 4.93,0.89 7.379,1.419 17.791,3.829 55.013,11.047 48.179,37.82 -1.712,6.706 -6.1,9.667 -11.771,12.778 -17.254,5.916 -36.864,0.323 -54.294,-3.509 2.919,-15.587 7.084,-32.88 10.507,-48.508 z"
         id="path15"
         style="fill:url(#linearGradient232);stroke:none"
         inkscape:label="InnerBBottom" /><path
         fill="#fe990c"
         d="m 247.141,512.576 c 2.437,0.433 4.872,0.88 7.305,1.34 19.722,3.748 50.947,12.773 35.287,39.577 -1.36,2.328 -4.95,4.463 -7.272,5.865 -15.018,5.498 -29.745,0.707 -45.154,-2.569 3.012,-14.749 5.858,-29.706 9.834,-44.213 z"
         id="path16"
         style="fill:url(#linearGradient230);stroke:none"
         inkscape:label="InnerBTop" /></g></g><g
     id="g6"
     inkscape:label="Divider"
     style="display:none"
     transform="translate(-484.7762,-489.77417)"><path
       style="display:inline;fill:url(#linearGradient235);stroke:none;stroke-width:16.3842;stroke-dasharray:none;stroke-opacity:1"
       d="m 1054.1347,761.26997 c 6.1553,-0.0331 6.4262,5.20444 -0.3163,5.20444 h -8e-4 c -10.7047,0 -805.4805,-0.96595 -810.5193,-0.97117 -2.5891,-0.003 -2.692,-2.98046 -0.1,-2.98046"
       id="path233-8"
       sodipodi:nodetypes="csssc"
       inkscape:label="LeftLine" /><path
       fill="#fe8a07"
       d="m 1119.716,721.88 c 1.58,2.923 -4.91,26.808 -6.18,32.149 l 18.7,0.791 c -9.54,14.248 -25.5,33.654 -36.28,47.368 -0.59,-4.12 6.16,-27.656 7.66,-33.478 -6.37,-0.351 -12.95,-0.504 -19.34,-0.735 10.96,-15.32 23.75,-31.311 35.44,-46.095 z"
       id="path49"
       style="fill:url(#linearGradient237);stroke:none"
       inkscape:label="Lightning" /><path
       style="display:inline;fill:url(#linearGradient234);stroke:none;stroke-width:16.3842;stroke-dasharray:none;stroke-opacity:1"
       d="m 1161.5937,760.63291 c -6.1553,-0.0331 -6.4262,5.20444 0.3163,5.20444 h 8e-4 c 10.7047,0 805.4805,-0.96595 810.5193,-0.97117 2.5891,-0.003 2.692,-2.98046 0.1,-2.98046"
       id="path233"
       sodipodi:nodetypes="csssc"
       inkscape:label="RightLine" /></g><g
     id="g5"
     inkscape:label="Environmental"
     style="display:none"
     transform="translate(-484.7762,-489.77417)"><path
       fill="#fe990c"
       d="m 270.617,820.109 c 1.987,-0.59 1.01,-0.608 3.02,0.163 0.803,5.161 -0.405,9.947 -1.569,15.026 -4.636,20.222 -12.487,44.779 -35.608,49.683 -4.536,0.962 -11.064,1.306 -15.057,-1.401 -5.363,-11.57 23.257,-35.877 31.619,-43.317 -5.671,2.84 -8.521,4.532 -13.767,8.102 -8.834,7.127 -16.04,13.808 -20.948,24.383 -3.098,6.674 -4.009,15.184 -9.216,20.483 l -0.876,-0.455 c 0.642,-6.001 1.813,-8.078 4.311,-13.662 -15.136,-30.862 9.388,-49.449 37.633,-54.155 6.625,-1.104 13.955,-3.027 20.458,-4.85 z"
       id="path44"
       style="display:block;fill:#41be00;fill-opacity:1;stroke:none"
       transform="translate(-32.768,8.1921922)"
       inkscape:label="Leaf" /><text
       xml:space="preserve"
       style="font-style:normal;font-variant:normal;font-weight:bold;font-stretch:normal;font-size:42.5731px;font-family:'Liberation Sans';-inkscape-font-specification:'Liberation Sans Bold';letter-spacing:0px;writing-mode:lr-tb;direction:ltr;display:block;fill:#fda53c;fill-opacity:1;stroke:none;stroke-width:16.3842;stroke-dasharray:none;stroke-opacity:1"
       x="256.00354"
       y="886.72815"
       id="text237"
       inkscape:label="Energiebedarf"><tspan
         sodipodi:role="line"
         id="tspan237"
         style="font-size:42.5731px;letter-spacing:0px;fill:#000000;fill-opacity:1;stroke-width:16.3842"
         x="256.00354"
         y="886.72815">100.000stel <tspan
   style="font-style:normal;font-variant:normal;font-weight:normal;font-stretch:normal;font-size:42.5731px;font-family:'Liberation Sans';-inkscape-font-specification:'Liberation Sans';letter-spacing:0px"
   id="tspan238">des Energiebedarfs</tspan></tspan></text></g><g
     id="g230649"
     transform="matrix(0.99749607,0,0,1,-449.33883,-473.64244)"
     inkscape:label="Fast"
     style="display:none"><path
       fill-rule="nonzero"
       fill="#000000"
       fill-opacity="1"
       d="m 1043.2181,1965.2195 c -0.3463,-0.9096 -0.8327,-3.9021 -1.0824,-6.6507 -0.5035,-7.9148 -1.5924,-14.6188 -1.599,-20.9493 -0.4593,-7.7282 1.3821,-25.2265 4.3753,-32.9276 0.7614,-0.583 2.3146,-0.3939 6.7202,0.8187 3.1513,0.867 5.9898,1.8356 6.3066,2.1525 0.3267,0.3267 -0.3111,3.5665 -1.472,7.4727 -3.8784,13.0525 -6.2469,30.8489 -5.8621,44.0405 l 0.2128,7.2967 -3.4853,0.2006 c -3.1906,0.1834 -3.5386,0.061 -4.1141,-1.4541 z m 245.7303,-1.897 c 2.683,-10.5529 3.4714,-30.0858 1.7169,-42.4923 -0.5346,-3.7859 -0.673,-6.7538 -0.3316,-7.0944 0.3251,-0.3226 12.6707,-4.0308 27.4365,-8.2416 21.5604,-6.1488 27.0099,-7.4915 27.6813,-6.8218 1.8208,1.8217 6.91,22.3822 7.8761,31.833 1.0734,7.9206 1.5949,14.3477 1.6015,20.3803 v 15.9189 h -66.8649 z m -115.1273,0.9448 c -10.5575,-2.7567 -18.1816,-11.6844 -19.033,-22.288 -0.6116,-7.6266 -1.5589,-5.3464 23.7079,-57.0914 3.5623,-7.2958 10.5764,-21.6223 15.5837,-31.8379 5.009,-10.2138 11.1299,-22.7505 13.6008,-27.8579 6.1888,-12.7839 26.029,-53.2891 29.0772,-59.3609 2.8754,-5.7264 4.774,-6.9799 7.6854,-5.0722 1.2371,0.8089 1.7087,1.6956 1.7087,3.2046 0,1.1446 -2.0714,11.0629 -4.6013,22.0374 -2.5315,10.977 -11.951,51.8924 -20.93,90.9279 -11.6194,50.5078 -16.8134,71.9279 -18.0145,74.2884 -3.6802,8.899 -14.5505,16.8638 -28.7849,13.05 z m 13.9331,-14.9421 c 7.6232,-5.0444 6.9543,-17.1144 -1.1683,-21.0787 -6.2608,-3.0556 -13.9995,-0.4487 -16.7684,5.6485 -5.0761,11.1776 7.7239,22.1897 17.9367,15.4302 z m 97.8178,-49.6785 c -4.7724,-14.5074 -14.2795,-30.5205 -24.8141,-41.8012 -2.561,-2.742 -4.6569,-5.3383 -4.6569,-5.7665 0,-0.4274 3.6573,-5.1827 8.1259,-10.5676 4.4686,-5.3849 10.9595,-13.2555 14.4244,-17.4893 3.4665,-4.2337 6.6587,-7.8493 7.0967,-8.0376 2.0329,-0.8745 18.7694,14.4075 28.3813,25.9191 8.053,9.6432 13.8693,18.1697 19.8861,29.1573 4.5841,8.3701 5.7369,11.7327 4.2296,12.3345 -0.4904,0.1956 -11.7038,4.716 -24.914,10.0444 -13.2134,5.3292 -24.6044,9.6891 -25.3175,9.6891 -0.9744,0 -1.5778,-0.8622 -2.4415,-3.4822 z m -230.4087,-6.4223 c -3.4468,-1.3713 -6.3885,-2.8582 -6.5375,-3.3036 -0.9113,-2.7338 9.7658,-25.7055 17.1352,-36.8708 8.7776,-13.2972 22.5151,-28.8478 24.7322,-27.9963 0.5428,0.2072 4.3442,4.3452 8.4476,9.1946 l 7.4611,8.8163 -3.9143,3.3323 c -6.8896,5.8688 -16.8519,15.7871 -21.0045,20.9141 -5.1408,6.3445 -11.477,16.0459 -15.0548,23.0495 -1.8667,3.6541 -3.162,5.4528 -3.8972,5.4144 -0.6059,-0.031 -3.9217,-1.179 -7.3678,-2.5505 z m 187.6472,-51.4633 c -2.3579,-1.6604 -4.3892,-3.3143 -4.5144,-3.6786 -0.2792,-0.8073 9.1902,-42.534 9.8133,-43.2406 0.8572,-0.9792 23.8267,10.1967 24.3817,11.8637 0.2514,0.754 -23.7554,37.5265 -24.7051,37.8409 -0.3791,0.1253 -2.6175,-1.1282 -4.9755,-2.7854 z m -128.8386,-8.1121 c -6.3795,-8.7737 -12.4643,-18.3146 -12.1696,-19.0818 0.4806,-1.251 12.2196,-8.8261 20.3176,-13.1082 8.4067,-4.4458 13.2184,-6.4976 23.0767,-9.8405 11.391,-3.8612 30.5902,-7.5964 31.499,-6.1267 0.5257,0.8507 2.6625,33.2551 2.2622,34.299 -0.2497,0.6493 -2.6969,0.9866 -9.1886,1.2658 -15.2947,0.6542 -31.3107,4.8814 -45.7359,12.0749 -4.047,2.0166 -7.4513,3.668 -7.5643,3.668 -0.1129,0 -1.2371,-1.4189 -2.4971,-3.1505 z m 80.5688,-11.578 c -2.1549,-0.3921 -3.6827,-1.0504 -3.9275,-1.6915 -0.7172,-1.8676 1.1757,-35.5796 2.0288,-36.1666 1.0898,-0.7442 23.9422,0.908 24.8305,1.7963 0.5428,0.5453 -17.7509,36.8519 -18.532,36.7832 -0.4822,-0.044 -2.4611,-0.3693 -4.3998,-0.7214 z m 0,0"
       id="path1"
       style="display:block;fill:#cc0000;fill-opacity:1;stroke:none;stroke-width:0.209597"
       transform="matrix(0.34434703,0,0,0.34434702,562.24913,207.91596)"
       inkscape:label="Speedometer" /><text
       xml:space="preserve"
       style="font-style:normal;font-variant:normal;font-weight:bold;font-stretch:normal;font-size:42.5731px;font-family:'Liberation Sans';-inkscape-font-specification:'Liberation Sans Bold';letter-spacing:0px;writing-mode:lr-tb;direction:ltr;display:block;fill:#fda53c;fill-opacity:1;stroke:none;stroke-width:16.3842;stroke-dasharray:none;stroke-opacity:1"
       x="1047.9423"
       y="870.45715"
       id="text237-5"
       inkscape:label="Schneller"><tspan
         sodipodi:role="line"
         id="tspan237-2"
         style="font-size:42.5731px;letter-spacing:0px;fill:#000000;fill-opacity:1;stroke-width:16.3842"
         x="1047.9423"
         y="870.45715">5X <tspan
   style="font-style:normal;font-variant:normal;font-weight:normal;font-stretch:normal;font-size:42.5731px;font-family:'Liberation Sans';-inkscape-font-specification:'Liberation Sans';letter-spacing:0px"
   id="tspan238-7">so schnell</tspan></tspan></text></g><g
     id="g230650"
     transform="translate(-456.1042,-469.29369)"
     inkscape:label="Secure"
     style="display:none"><text
       xml:space="preserve"
       style="font-style:normal;font-variant:normal;font-weight:bold;font-stretch:normal;font-size:42.5731px;font-family:'Liberation Sans';-inkscape-font-specification:'Liberation Sans Bold';text-align:center;letter-spacing:0px;writing-mode:lr-tb;direction:ltr;text-anchor:middle;display:block;fill:#fda53c;fill-opacity:1;stroke:none;stroke-width:16.3842;stroke-dasharray:none;stroke-opacity:1"
       x="1662.4828"
       y="832.95233"
       id="text237-5-1"
       inkscape:label="Prinzipien"><tspan
         sodipodi:role="line"
         id="tspan237-2-4"
         style="font-size:42.5731px;letter-spacing:0px;fill:#000000;fill-opacity:1;stroke-width:16.3842"
         x="1662.4828"
         y="832.95233"
         dx="0"
         dy="15">Bitcoin Prinzipien</tspan><tspan
         sodipodi:role="line"
         style="font-style:normal;font-variant:normal;font-weight:normal;font-stretch:normal;font-size:34.8325px;font-family:'Liberation Sans';-inkscape-font-specification:'Liberation Sans';letter-spacing:0px;fill:#000000;fill-opacity:1;stroke-width:16.3842"
         x="1662.4828"
         y="886.1687"
         id="tspan230646">Effizient neu gedacht</tspan></text><g
       id="g230647"
       transform="matrix(0.87419563,0,0,0.87419563,179.45187,105.46449)"
       inkscape:label="Shield"><path
         fill="#fe990c"
         d="m 1425.9,808.85 c 14.1102,8.50672 18.9963,10.54164 38.97,12.749 0.96,35.024 0.64,62.906 -37.55,77.604 -39.827,-14.33379 -39.8477,-47.23102 -39.34,-77.479 15.97,-2.264 24.21,-4.804 37.92,-12.874 z"
         id="path29"
         style="fill:#ff9107;fill-opacity:1"
         sodipodi:nodetypes="ccccc"
         inkscape:label="shield" /><text
         xml:space="preserve"
         style="font-style:normal;font-variant:normal;font-weight:bold;font-stretch:normal;font-size:54.1839px;font-family:'Palatino Linotype';-inkscape-font-specification:'Palatino Linotype Bold';text-align:center;letter-spacing:0px;writing-mode:lr-tb;direction:ltr;text-anchor:middle;fill:#ffffff;fill-opacity:1;stroke:none;stroke-width:16.3842;stroke-dasharray:none;stroke-opacity:1"
         x="1426.463"
         y="871.72296"
         id="text230644"
         inkscape:label="BTC-B"><tspan
           sodipodi:role="line"
           id="tspan230644"
           style="font-style:normal;font-variant:normal;font-weight:bold;font-stretch:normal;font-size:54.1839px;font-family:'Palatino Linotype';-inkscape-font-specification:'Palatino Linotype Bold';fill:#ffffff;fill-opacity:1;stroke-width:16.3842"
           x="1426.463"
           y="871.72296">₿</tspan></text></g></g><text
     xml:space="preserve"
     style="font-size:42.5731px;font-family:'Liberation Sans';-inkscape-font-specification:'Liberation Sans';letter-spacing:0px;writing-mode:lr-tb;direction:ltr;fill:none;fill-opacity:1;stroke:none;stroke-width:16.3842"
     x="1.6399614"
     y="242.39827"
     id="text5"
     inkscape:label="(c) EviLSeeD"><tspan
       sodipodi:role="line"
       id="tspan5"
       style="fill:none;fill-opacity:1;stroke:none;stroke-width:16.3842"
       x="1.6399614"
       y="242.39827">© EviLSeeD</tspan></text></svg>
