<?xml version="1.0" encoding="UTF-8" standalone="no"?>
<svg
   version="1.1"
   style="display:block"
   viewBox="0 0 2206.1842 251.6192"
   width="1077.2384"
   height="122.85806"
   preserveAspectRatio="none"
   id="svg168"
   sodipodi:docname="bitcoin-pocxplorer-white.svg"
   inkscape:version="1.4.4 (dcaf3e7, 2026-05-05)"
   xml:space="preserve"
   inkscape:export-filename="bitcoin-pocx-logo-only.png"
   inkscape:export-xdpi="96"
   inkscape:export-ydpi="96"
   xmlns:inkscape="http://www.inkscape.org/namespaces/inkscape"
   xmlns:sodipodi="http://sodipodi.sourceforge.net/DTD/sodipodi-0.dtd"
   xmlns:xlink="http://www.w3.org/1999/xlink"
   xmlns="http://www.w3.org/2000/svg"
   xmlns:svg="http://www.w3.org/2000/svg"><sodipodi:namedview
     id="namedview168"
     pagecolor="#505050"
     bordercolor="#eeeeee"
     borderopacity="1"
     inkscape:showpageshadow="0"
     inkscape:pageopacity="0"
     inkscape:pagecheckerboard="0"
     inkscape:deskcolor="#505050"
     showgrid="false"
     showguides="true"
     inkscape:zoom="1.4142136"
     inkscape:cx="462.44783"
     inkscape:cy="-51.618795"
     inkscape:window-width="3840"
     inkscape:window-height="2126"
     inkscape:window-x="-11"
     inkscape:window-y="-11"
     inkscape:window-maximized="1"
     inkscape:current-layer="g4"
     inkscape:lockguides="false"><inkscape:page
       x="9.712965e-06"
       y="6.4233504e-06"
       width="2206.1843"
       height="251.6192"
       id="page1"
       margin="0 0 0 0"
       bleed="0" /></sodipodi:namedview><defs
     id="defs10"><rect
       x="980"
       y="60"
       width="595"
       height="107"
       id="rect1" /><linearGradient
       id="linearGradient230645"
       gradientUnits="userSpaceOnUse"
       x1="168.853"
       y1="434.686"
       x2="334.582"
       y2="712.04199"><stop
         class="stop0"
         offset="0"
         stop-opacity="1"
         stop-color="rgb(255,160,0)"
         id="stop230644" /><stop
         class="stop1"
         offset="1"
         stop-opacity="1"
         stop-color="rgb(255,123,16)"
         id="stop230645"
         style="stop-color:#62ff10;stop-opacity:1;" /></linearGradient><rect
       x="459"
       y="399.75"
       width="47.25"
       height="32.625"
       id="rect230642" /><linearGradient
       id="linearGradient218"
       inkscape:collect="always"><stop
         style="stop-color:#000000;stop-opacity:1;"
         offset="0"
         id="stop218" /><stop
         style="stop-color:#000000;stop-opacity:0;"
         offset="1"
         id="stop219" /></linearGradient><linearGradient
       id="linearGradient216"
       inkscape:collect="always"><stop
         style="stop-color:#000000;stop-opacity:1;"
         offset="0"
         id="stop216" /><stop
         style="stop-color:#000000;stop-opacity:0;"
         offset="1"
         id="stop217" /></linearGradient><linearGradient
       id="Gradient4"
       gradientUnits="userSpaceOnUse"
       x1="168.853"
       y1="434.686"
       x2="334.582"
       y2="712.04199"><stop
         class="stop0"
         offset="0"
         stop-opacity="1"
         stop-color="rgb(255,160,0)"
         id="stop7" /><stop
         class="stop1"
         offset="1"
         stop-opacity="1"
         stop-color="rgb(255,123,16)"
         id="stop8" /></linearGradient><linearGradient
       inkscape:collect="always"
       xlink:href="#Gradient4"
       id="linearGradient177"
       x1="1393.2006"
       y1="162.00571"
       x2="1494.2831"
       y2="338.38348"
       gradientUnits="userSpaceOnUse"
       gradientTransform="translate(1.7182797,334.34795)" /><linearGradient
       inkscape:collect="always"
       xlink:href="#Gradient4"
       id="linearGradient206"
       x1="1502.5184"
       y1="95.617188"
       x2="1641.5323"
       y2="315.03336"
       gradientUnits="userSpaceOnUse"
       gradientTransform="matrix(0.82878356,0,0,0.82878356,271.84992,431.17219)" /><linearGradient
       inkscape:collect="always"
       xlink:href="#linearGradient218"
       id="linearGradient219"
       x1="1720.7513"
       y1="482.67197"
       x2="1822.6241"
       y2="672.42853"
       gradientUnits="userSpaceOnUse" /><linearGradient
       inkscape:collect="always"
       xlink:href="#linearGradient216"
       id="linearGradient220"
       gradientUnits="userSpaceOnUse"
       x1="1359.3101"
       y1="584.66888"
       x2="1509.7637"
       y2="584.66888" /><linearGradient
       inkscape:collect="always"
       xlink:href="#Gradient4"
       id="linearGradient224"
       x1="1730.2009"
       y1="493.65787"
       x2="1829.9738"
       y2="676.42334"
       gradientUnits="userSpaceOnUse"
       gradientTransform="translate(8.3995681)" /><linearGradient
       inkscape:collect="always"
       xlink:href="#Gradient4"
       id="linearGradient227"
       x1="91.969528"
       y1="369.14413"
       x2="413.7424"
       y2="781.22095"
       gradientUnits="userSpaceOnUse"
       gradientTransform="matrix(0.9507757,0,0,0.94479909,12.76227,28.05418)" /><linearGradient
       inkscape:collect="always"
       xlink:href="#Gradient4"
       id="linearGradient228"
       gradientUnits="userSpaceOnUse"
       x1="141.33806"
       y1="383.2753"
       x2="375.8544"
       y2="760.19427" /><linearGradient
       inkscape:collect="always"
       xlink:href="#Gradient4"
       id="linearGradient230"
       x1="156.57239"
       y1="370.31616"
       x2="360.23517"
       y2="760.96509"
       gradientUnits="userSpaceOnUse" /><linearGradient
       inkscape:collect="always"
       xlink:href="#Gradient4"
       id="linearGradient232"
       x1="169.24036"
       y1="383.54715"
       x2="342.57224"
       y2="762.9726"
       gradientUnits="userSpaceOnUse" /><linearGradient
       inkscape:collect="always"
       xlink:href="#Gradient4"
       id="linearGradient234"
       x1="1471.7601"
       y1="777.11169"
       x2="1478.121"
       y2="791.05048"
       gradientUnits="userSpaceOnUse"
       gradientTransform="matrix(1,0,0,-1,-5.301592,1547.5877)" /><linearGradient
       inkscape:collect="always"
       xlink:href="#Gradient4"
       id="linearGradient235"
       gradientUnits="userSpaceOnUse"
       gradientTransform="rotate(180,1110.5151,774.11235)"
       x1="1471.7601"
       y1="777.11169"
       x2="1478.121"
       y2="791.05048" /><linearGradient
       inkscape:collect="always"
       xlink:href="#Gradient4"
       id="linearGradient237"
       x1="1092.98"
       y1="720.56104"
       x2="1123.02"
       y2="801.45892"
       gradientUnits="userSpaceOnUse" /><linearGradient
       inkscape:collect="always"
       xlink:href="#Gradient4"
       id="linearGradient1"
       gradientUnits="userSpaceOnUse"
       gradientTransform="matrix(0.82878356,0,0,0.82878356,271.84992,431.17219)"
       x1="1502.5184"
       y1="95.617188"
       x2="1641.5323"
       y2="315.03336" /></defs><g
     id="g4"
     inkscape:label="Logo"
     transform="translate(-484.7762,-489.80502)"><g
       id="g3"
       style="display:inline"
       inkscape:label="PoCXLogo"><text
         style="font-style:italic;font-weight:bold;font-size:255.439px;font-family:Ubuntu;-inkscape-font-specification:'Ubuntu Bold Italic';letter-spacing:-5.12006px;fill:#ffffff;fill-opacity:1;stroke:none;stroke-width:0.220638;stroke-opacity:1"
         transform="scale(0.97528824,1.0253379)"
         x="477.85159"
         y="675.86072"
         id="text202"
         inkscape:label="B">B</text><text
         style="font-style:italic;font-weight:bold;font-size:255.439px;font-family:Ubuntu;-inkscape-font-specification:'Ubuntu Bold Italic';letter-spacing:-5.12006px;fill:#ffffff;fill-opacity:1;stroke:none;stroke-width:0.220638;stroke-opacity:1"
         transform="scale(0.97528824,1.0253379)"
         x="631.10364"
         y="675.86072"
         id="text201"
         inkscape:label="i1">i</text><text
         style="font-style:italic;font-weight:bold;font-size:255.439px;font-family:Ubuntu;-inkscape-font-specification:'Ubuntu Bold Italic';letter-spacing:-5.12006px;fill:#ffffff;fill-opacity:1;stroke:none;stroke-width:0.220638;stroke-opacity:1"
         transform="scale(0.97528824,1.0253379)"
         x="701.84906"
         y="675.86072"
         id="text200"
         inkscape:label="t1">t</text><text
         style="font-style:italic;font-weight:bold;font-size:255.439px;font-family:Ubuntu;-inkscape-font-specification:'Ubuntu Bold Italic';letter-spacing:-5.12006px;fill:#ffffff;fill-opacity:1;stroke:none;stroke-width:0.220638;stroke-opacity:1"
         transform="scale(0.97528824,1.0253379)"
         x="801.45868"
         y="675.86072"
         id="text199"
         inkscape:label="c1">c</text><text
         style="font-style:italic;font-weight:bold;font-size:255.439px;font-family:Ubuntu;-inkscape-font-specification:'Ubuntu Bold Italic';letter-spacing:-5.12006px;fill:#ffffff;fill-opacity:1;stroke:none;stroke-width:0.220638;stroke-opacity:1"
         transform="scale(0.97528824,1.0253379)"
         x="919.71545"
         y="675.86072"
         id="text198"
         inkscape:label="o">o</text><text
         style="font-style:italic;font-weight:bold;font-size:255.439px;font-family:Ubuntu;-inkscape-font-specification:'Ubuntu Bold Italic';letter-spacing:-5.12006px;fill:#ffffff;fill-opacity:1;stroke:none;stroke-width:0.220638;stroke-opacity:1"
         transform="scale(0.97528824,1.0253379)"
         x="1064.0267"
         y="675.86072"
         id="text197"
         inkscape:label="i2">i</text><text
         style="font-style:italic;font-weight:bold;font-size:255.439px;font-family:Ubuntu;-inkscape-font-specification:'Ubuntu Bold Italic';letter-spacing:-5.12006px;fill:#ffffff;fill-opacity:1;stroke:none;stroke-width:0.220638;stroke-opacity:1"
         transform="scale(0.97528824,1.0253379)"
         x="1134.7722"
         y="675.86072"
         id="text196"
         inkscape:label="n">n</text><text
         style="font-style:italic;font-weight:bold;font-size:255.439px;font-family:Ubuntu;-inkscape-font-specification:'Ubuntu Bold Italic';letter-spacing:-5.12006px;fill:#ffffff;fill-opacity:1;stroke:none;stroke-width:0.220638;stroke-opacity:1"
         transform="scale(0.97528824,1.0253379)"
         x="1283.937"
         y="675.86072"
         id="text195"
         inkscape:label="-">-</text><text
         style="font-style:italic;font-weight:bold;font-size:255.439px;font-family:Ubuntu;-inkscape-font-specification:'Ubuntu Bold Italic';letter-spacing:-5.12006px;fill:url(#linearGradient177);stroke:none;stroke-width:0.220638"
         transform="scale(0.97528824,1.0253379)"
         x="1361.0684"
         y="675.86072"
         id="text194"
         inkscape:label="P">P</text><g
         id="g1"
         transform="translate(19.383007)"
         style="display:inline"
         inkscape:label="o"><path
           id="path203"
           style="display:inline;fill:none;fill-opacity:1;stroke:url(#linearGradient1);stroke-width:20.8644;stroke-linecap:butt;stroke-linejoin:bevel;stroke-dasharray:none;paint-order:normal"
           inkscape:label="LetterO"
           d="m 1516.4694,656.05581 c -0.734,-1.05493 -1.1489,-1.55184 -1.5042,-2.0218 -9.4252,-12.46549 -14.54,-27.67984 -14.54,-43.33974 0,-39.68749 32.1723,-71.86055 71.8589,-71.86053 39.6865,4e-5 71.8588,32.17308 71.8588,71.86053 v 0 c 0,39.68745 -32.1723,71.86051 -71.8588,71.86054 -11.1638,10e-6 -22.1679,-2.60106 -32.1422,-7.58943 -0.3845,-0.19229 -0.5274,-0.22013 -1.0688,-0.50751"
           sodipodi:nodetypes="csssssssc" /><path
           style="display:inline;fill:#ffffff;fill-opacity:1;stroke:none;stroke-width:0;stroke-linecap:butt;stroke-linejoin:bevel;stroke-dasharray:none;stroke-dashoffset:0;stroke-opacity:1;paint-order:normal"
           d="m 1548.1724,647.68576 2.6407,2.81528 11.1669,9.00954 3.5204,2.11151 2.368,-4.65611 -15.344,-12.17628 z"
           id="path24"
           sodipodi:nodetypes="ccccccc"
           transform="translate(-19.383007)"
           inkscape:label="PlatterOuterWhiteFill" /><path
           id="path22"
           style="display:none;fill:none;fill-opacity:1;stroke:url(#linearGradient206);stroke-width:20.8644;stroke-dasharray:none"
           inkscape:label="LetterOCut"
           d="m 1538.9931,674.37787 a 71.858864,71.860535 0 0 1 -22.9436,-18.94584" /><path
           id="path207"
           style="fill:#ffffff;fill-opacity:1;stroke:#000000;stroke-width:5.29788;stroke-linecap:butt;stroke-dasharray:none;stroke-opacity:1;paint-order:normal"
           inkscape:label="PlatterOuter"
           d="m 1530.9721,646.24218 c -0.5264,-0.77194 -1.0962,-1.43259 -1.5493,-2.02154 -7.3383,-9.53853 -11.3367,-21.25291 -11.3367,-33.32928 0,-30.1881 24.4717,-54.66039 54.6591,-54.6604 30.1874,-5e-5 54.6592,24.47226 54.6592,54.6604 v 0 c 0,30.18814 -24.4718,54.66045 -54.6592,54.6604 -8.8721,-10e-6 -17.6108,-2.15973 -25.4615,-6.29265"
           sodipodi:nodetypes="cssssssc" /><path
           id="path23"
           style="display:none;fill:none;fill-opacity:1;stroke:#000000;stroke-width:5.29788;stroke-dasharray:none;stroke-opacity:1"
           inkscape:label="PlatterOuterCut"
           d="m 1547.2837,659.25911 a 54.659115,54.6604 0 0 1 -16.4636,-13.29694" /><path
           style="display:inline;fill:#000000;fill-opacity:1;stroke:none;stroke-width:0;stroke-dasharray:none;stroke-dashoffset:0;stroke-opacity:1;paint-order:normal"
           d="m 1536.941,669.84347 22.1893,-38.63635 -37.8523,25.84458 c 0,0 -9.5864,6.97657 -12.4363,9.31293 -3.5181,2.88415 -15.3858,12.66082 -5.3804,22.66648 9.7949,9.79505 21.301,-0.21743 24.9606,-5.75441 2.8592,-4.32587 8.5191,-13.43323 8.5191,-13.43323 z"
           id="path209"
           sodipodi:nodetypes="cccsssc"
           inkscape:label="PlatterArm" /><path
           style="display:inline;fill:#ffffff;fill-opacity:1;stroke:none;stroke-width:8.68764;stroke-dasharray:none;stroke-opacity:1"
           d="m 1546.2853,645.00118 -16.5336,24.72677 -6.725,-6.70885 z"
           id="path211"
           inkscape:transform-center-x="10.112544"
           inkscape:transform-center-y="10.713964"
           inkscape:label="PlatterArmDetail" /><circle
           style="fill:#ffffff;fill-opacity:1;stroke:none;stroke-width:4.70002;stroke-dasharray:none;stroke-opacity:1"
           id="path210"
           cx="-1513.7108"
           cy="679.17175"
           r="5.0371118"
           transform="scale(-1,1)"
           inkscape:label="PlatterArmCircle" /><ellipse
           style="display:block;fill:#ffffff;fill-opacity:1;stroke:#000000;stroke-width:14.0048;stroke-dasharray:none;stroke-opacity:1"
           id="path208"
           cx="1573.1191"
           cy="611.05762"
           rx="12.028322"
           ry="12.028604"
           inkscape:label="PlatterCenter" /><text
           xml:space="preserve"
           transform="matrix(12.595338,0,0,12.595634,-10393.122,-306.90719)"
           id="text1"
           style="font-weight:500;font-size:20.7874px;font-family:Ubuntu;-inkscape-font-specification:'Ubuntu Medium';letter-spacing:-0.3252px;writing-mode:lr-tb;direction:ltr;white-space:pre;shape-inside:url(#rect1);fill:#ffffff;stroke-width:0;stroke-linejoin:bevel"><tspan
             x="980"
             y="79.384088"
             id="tspan3"><tspan
               style="font-style:italic;-inkscape-font-specification:'Ubuntu Medium Italic'"
               id="tspan2">plorer</tspan></tspan></text></g><text
         style="font-style:italic;font-weight:bold;font-size:255.439px;font-family:Ubuntu;-inkscape-font-specification:'Ubuntu Bold Italic';letter-spacing:-5.12006px;display:inline;fill:url(#linearGradient224);stroke:none;stroke-width:0.220638;stroke-opacity:1"
         transform="scale(0.97528824,1.0253379)"
         x="1698.0756"
         y="675.86072"
         id="text192"
         inkscape:label="C2">C</text><text
         style="font-style:italic;font-weight:bold;font-size:255.439px;font-family:Ubuntu;-inkscape-font-specification:'Ubuntu Bold Italic';letter-spacing:-2.31428px;display:inline;fill:#ffffff;fill-opacity:1;stroke:none;stroke-width:0.220638;stroke-opacity:1"
         transform="scale(0.97528824,1.0253379)"
         x="1849.2838"
         y="675.86072"
         id="text191"
         inkscape:label="X">X</text></g><g
       id="g2"
       inkscape:label="BTCLogo"
       style="display:none"><path
         fill="#ffffff"
         d="m 244.847,393.404 c 99.572,-4.114 183.683,73.148 188.02,172.71 4.337,99.562 -72.736,183.846 -172.288,188.407 C 160.711,759.096 76.1006,681.724 71.7496,581.846 67.3986,481.968 144.96,397.531 244.847,393.404 Z"
         id="path12"
         inkscape:label="MiddleCircle"
         style="display:block" /><path
         fill="url(#Gradient4)"
         d="m 236.955,410.382 c 90.525,-8.48 170.722,58.179 178.936,148.728 8.213,90.55 -58.682,170.55 -149.256,178.497 C 176.439,745.52 96.8437,678.963 88.6647,588.791 80.4857,498.618 146.807,418.827 236.955,410.382 Z"
         id="path13"
         style="fill:url(#linearGradient228);stroke:none"
         inkscape:label="InnerCircle" /><ellipse
         style="display:inline;fill:none;fill-opacity:1;stroke:url(#linearGradient227);stroke-width:16.3166;stroke-dasharray:none"
         id="path226"
         cx="252.26649"
         cy="572.755"
         rx="187.9037"
         ry="186.7269"
         inkscape:label="OuterCircle"
         transform="matrix(0.9999983,0.00184726,0,0.99999999,0,0)" /><path
         fill="#ffffff"
         d="m 236.585,446.649 c 7.742,1.419 14.422,3.255 21.996,5.294 -1.033,9.311 -4.573,24.122 -6.583,33.707 l 16.532,3.993 c 2.661,-11.481 5.398,-22.944 8.21,-34.389 l 22.085,5.05 c -2.724,10.368 -5.379,23.599 -7.459,34.117 16.264,6.042 37.264,14.749 42.801,32.581 7.04,22.673 -3.046,43.329 -24.976,51.101 15.349,10.129 26.574,21.709 23.871,41.223 -6.564,47.385 -40.135,48.699 -77.46,44.691 -1.592,7.018 -6.097,28.98 -8.873,34.597 -3.169,0.964 -7.139,-0.219 -10.581,-0.857 l -10.855,-2.583 7.742,-36.504 -16.571,-3.143 c -3.407,10.422 -5.735,23.879 -9.009,35.324 -7.077,-1.819 -15.06,-3.106 -22.302,-4.439 3.093,-11.192 5.385,-24.613 7.639,-36.155 -14.22,-3.305 -28.472,-6.476 -42.752,-9.512 3.266,-8.708 6.657,-17.369 10.173,-25.979 15.547,4.039 23.158,9.324 27.13,-10.379 6.203,-30.757 14.32,-61.296 19.532,-92.212 2.009,-11.914 -16.389,-13.608 -24.585,-15.323 1.983,-7.35 3.777,-16.353 5.469,-23.9 13.41,2.22 28.052,5.545 41.462,8.372 2.695,-11.678 5.318,-22.843 7.364,-34.675 z"
         id="path14"
         inkscape:label="BOutline" /><path
         fill="#fe8a07"
         d="m 232.605,579.632 c 2.47,0.418 4.93,0.89 7.379,1.419 17.791,3.829 55.013,11.047 48.179,37.82 -1.712,6.706 -6.1,9.667 -11.771,12.778 -17.254,5.916 -36.864,0.323 -54.294,-3.509 2.919,-15.587 7.084,-32.88 10.507,-48.508 z"
         id="path15"
         style="fill:url(#linearGradient232);stroke:none"
         inkscape:label="InnerBBottom" /><path
         fill="#fe990c"
         d="m 247.141,512.576 c 2.437,0.433 4.872,0.88 7.305,1.34 19.722,3.748 50.947,12.773 35.287,39.577 -1.36,2.328 -4.95,4.463 -7.272,5.865 -15.018,5.498 -29.745,0.707 -45.154,-2.569 3.012,-14.749 5.858,-29.706 9.834,-44.213 z"
         id="path16"
         style="fill:url(#linearGradient230);stroke:none"
         inkscape:label="InnerBTop" /></g></g><g
     id="g6"
     inkscape:label="Divider"
     style="display:none"
     transform="translate(-484.7762,-489.80502)"><path
       style="display:inline;fill:url(#linearGradient235);stroke:none;stroke-width:16.3842;stroke-dasharray:none;stroke-opacity:1"
       d="m 1054.1347,761.26997 c 6.1553,-0.0331 6.4262,5.20444 -0.3163,5.20444 h -8e-4 c -10.7047,0 -805.4805,-0.96595 -810.5193,-0.97117 -2.5891,-0.003 -2.692,-2.98046 -0.1,-2.98046"
       id="path233-8"
       sodipodi:nodetypes="csssc"
       inkscape:label="LeftLine" /><path
       fill="#fe8a07"
       d="m 1119.716,721.88 c 1.58,2.923 -4.91,26.808 -6.18,32.149 l 18.7,0.791 c -9.54,14.248 -25.5,33.654 -36.28,47.368 -0.59,-4.12 6.16,-27.656 7.66,-33.478 -6.37,-0.351 -12.95,-0.504 -19.34,-0.735 10.96,-15.32 23.75,-31.311 35.44,-46.095 z"
       id="path49"
       style="fill:url(#linearGradient237);stroke:none"
       inkscape:label="Lightning" /><path
       style="display:inline;fill:url(#linearGradient234);stroke:none;stroke-width:16.3842;stroke-dasharray:none;stroke-opacity:1"
       d="m 1161.5937,760.63291 c -6.1553,-0.0331 -6.4262,5.20444 0.3163,5.20444 h 8e-4 c 10.7047,0 805.4805,-0.96595 810.5193,-0.97117 2.5891,-0.003 2.692,-2.98046 0.1,-2.98046"
       id="path233"
       sodipodi:nodetypes="csssc"
       inkscape:label="RightLine" /></g><g
     id="g5"
     inkscape:label="Environmental"
     style="display:none"
     transform="translate(-484.7762,-489.80502)"><path
       fill="#fe990c"
       d="m 270.617,820.109 c 1.987,-0.59 1.01,-0.608 3.02,0.163 0.803,5.161 -0.405,9.947 -1.569,15.026 -4.636,20.222 -12.487,44.779 -35.608,49.683 -4.536,0.962 -11.064,1.306 -15.057,-1.401 -5.363,-11.57 23.257,-35.877 31.619,-43.317 -5.671,2.84 -8.521,4.532 -13.767,8.102 -8.834,7.127 -16.04,13.808 -20.948,24.383 -3.098,6.674 -4.009,15.184 -9.216,20.483 l -0.876,-0.455 c 0.642,-6.001 1.813,-8.078 4.311,-13.662 -15.136,-30.862 9.388,-49.449 37.633,-54.155 6.625,-1.104 13.955,-3.027 20.458,-4.85 z"
       id="path44"
       style="display:block;fill:#41be00;fill-opacity:1;stroke:none"
       transform="translate(-32.768,8.1921922)"
       inkscape:label="Leaf" /><text
       xml:space="preserve"
       style="font-style:normal;font-variant:normal;font-weight:bold;font-stretch:normal;font-size:42.5731px;font-family:'Liberation Sans';-inkscape-font-specification:'Liberation Sans Bold';letter-spacing:0px;writing-mode:lr-tb;direction:ltr;display:block;fill:#fda53c;fill-opacity:1;stroke:none;stroke-width:16.3842;stroke-dasharray:none;stroke-opacity:1"
       x="256.00354"
       y="886.72815"
       id="text237"
       inkscape:label="Energiebedarf"><tspan
         sodipodi:role="line"
         id="tspan237"
         style="font-size:42.5731px;letter-spacing:0px;fill:#000000;fill-opacity:1;stroke-width:16.3842"
         x="256.00354"
         y="886.72815">100.000stel <tspan
   style="font-style:normal;font-variant:normal;font-weight:normal;font-stretch:normal;font-size:42.5731px;font-family:'Liberation Sans';-inkscape-font-specification:'Liberation Sans';letter-spacing:0px"
   id="tspan238">des Energiebedarfs</tspan></tspan></text></g><g
     id="g230649"
     transform="matrix(0.99749607,0,0,1,-449.33884,-473.67329)"
     inkscape:label="Fast"
     style="display:none"><path
       fill-rule="nonzero"
       fill="#000000"
       fill-opacity="1"
       d="m 1043.2181,1965.2195 c -0.3463,-0.9096 -0.8327,-3.9021 -1.0824,-6.6507 -0.5035,-7.9148 -1.5924,-14.6188 -1.599,-20.9493 -0.4593,-7.7282 1.3821,-25.2265 4.3753,-32.9276 0.7614,-0.583 2.3146,-0.3939 6.7202,0.8187 3.1513,0.867 5.9898,1.8356 6.3066,2.1525 0.3267,0.3267 -0.3111,3.5665 -1.472,7.4727 -3.8784,13.0525 -6.2469,30.8489 -5.8621,44.0405 l 0.2128,7.2967 -3.4853,0.2006 c -3.1906,0.1834 -3.5386,0.061 -4.1141,-1.4541 z m 245.7303,-1.897 c 2.683,-10.5529 3.4714,-30.0858 1.7169,-42.4923 -0.5346,-3.7859 -0.673,-6.7538 -0.3316,-7.0944 0.3251,-0.3226 12.6707,-4.0308 27.4365,-8.2416 21.5604,-6.1488 27.0099,-7.4915 27.6813,-6.8218 1.8208,1.8217 6.91,22.3822 7.8761,31.833 1.0734,7.9206 1.5949,14.3477 1.6015,20.3803 v 15.9189 h -66.8649 z m -115.1273,0.9448 c -10.5575,-2.7567 -18.1816,-11.6844 -19.033,-22.288 -0.6116,-7.6266 -1.5589,-5.3464 23.7079,-57.0914 3.5623,-7.2958 10.5764,-21.6223 15.5837,-31.8379 5.009,-10.2138 11.1299,-22.7505 13.6008,-27.8579 6.1888,-12.7839 26.029,-53.2891 29.0772,-59.3609 2.8754,-5.7264 4.774,-6.9799 7.6854,-5.0722 1.2371,0.8089 1.7087,1.6956 1.7087,3.2046 0,1.1446 -2.0714,11.0629 -4.6013,22.0374 -2.5315,10.977 -11.951,51.8924 -20.93,90.9279 -11.6194,50.5078 -16.8134,71.9279 -18.0145,74.2884 -3.6802,8.899 -14.5505,16.8638 -28.7849,13.05 z m 13.9331,-14.9421 c 7.6232,-5.0444 6.9543,-17.1144 -1.1683,-21.0787 -6.2608,-3.0556 -13.9995,-0.4487 -16.7684,5.6485 -5.0761,11.1776 7.7239,22.1897 17.9367,15.4302 z m 97.8178,-49.6785 c -4.7724,-14.5074 -14.2795,-30.5205 -24.8141,-41.8012 -2.561,-2.742 -4.6569,-5.3383 -4.6569,-5.7665 0,-0.4274 3.6573,-5.1827 8.1259,-10.5676 4.4686,-5.3849 10.9595,-13.2555 14.4244,-17.4893 3.4665,-4.2337 6.6587,-7.8493 7.0967,-8.0376 2.0329,-0.8745 18.7694,14.4075 28.3813,25.9191 8.053,9.6432 13.8693,18.1697 19.8861,29.1573 4.5841,8.3701 5.7369,11.7327 4.2296,12.3345 -0.4904,0.1956 -11.7038,4.716 -24.914,10.0444 -13.2134,5.3292 -24.6044,9.6891 -25.3175,9.6891 -0.9744,0 -1.5778,-0.8622 -2.4415,-3.4822 z m -230.4087,-6.4223 c -3.4468,-1.3713 -6.3885,-2.8582 -6.5375,-3.3036 -0.9113,-2.7338 9.7658,-25.7055 17.1352,-36.8708 8.7776,-13.2972 22.5151,-28.8478 24.7322,-27.9963 0.5428,0.2072 4.3442,4.3452 8.4476,9.1946 l 7.4611,8.8163 -3.9143,3.3323 c -6.8896,5.8688 -16.8519,15.7871 -21.0045,20.9141 -5.1408,6.3445 -11.477,16.0459 -15.0548,23.0495 -1.8667,3.6541 -3.162,5.4528 -3.8972,5.4144 -0.6059,-0.031 -3.9217,-1.179 -7.3678,-2.5505 z m 187.6472,-51.4633 c -2.3579,-1.6604 -4.3892,-3.3143 -4.5144,-3.6786 -0.2792,-0.8073 9.1902,-42.534 9.8133,-43.2406 0.8572,-0.9792 23.8267,10.1967 24.3817,11.8637 0.2514,0.754 -23.7554,37.5265 -24.7051,37.8409 -0.3791,0.1253 -2.6175,-1.1282 -4.9755,-2.7854 z m -128.8386,-8.1121 c -6.3795,-8.7737 -12.4643,-18.3146 -12.1696,-19.0818 0.4806,-1.251 12.2196,-8.8261 20.3176,-13.1082 8.4067,-4.4458 13.2184,-6.4976 23.0767,-9.8405 11.391,-3.8612 30.5902,-7.5964 31.499,-6.1267 0.5257,0.8507 2.6625,33.2551 2.2622,34.299 -0.2497,0.6493 -2.6969,0.9866 -9.1886,1.2658 -15.2947,0.6542 -31.3107,4.8814 -45.7359,12.0749 -4.047,2.0166 -7.4513,3.668 -7.5643,3.668 -0.1129,0 -1.2371,-1.4189 -2.4971,-3.1505 z m 80.5688,-11.578 c -2.1549,-0.3921 -3.6827,-1.0504 -3.9275,-1.6915 -0.7172,-1.8676 1.1757,-35.5796 2.0288,-36.1666 1.0898,-0.7442 23.9422,0.908 24.8305,1.7963 0.5428,0.5453 -17.7509,36.8519 -18.532,36.7832 -0.4822,-0.044 -2.4611,-0.3693 -4.3998,-0.7214 z m 0,0"
       id="path1"
       style="display:block;fill:#cc0000;fill-opacity:1;stroke:none;stroke-width:0.209597"
       transform="matrix(0.34434703,0,0,0.34434702,562.24913,207.91596)"
       inkscape:label="Speedometer" /><text
       xml:space="preserve"
       style="font-style:normal;font-variant:normal;font-weight:bold;font-stretch:normal;font-size:42.5731px;font-family:'Liberation Sans';-inkscape-font-specification:'Liberation Sans Bold';letter-spacing:0px;writing-mode:lr-tb;direction:ltr;display:block;fill:#fda53c;fill-opacity:1;stroke:none;stroke-width:16.3842;stroke-dasharray:none;stroke-opacity:1"
       x="1047.9423"
       y="870.45715"
       id="text237-5"
       inkscape:label="Schneller"><tspan
         sodipodi:role="line"
         id="tspan237-2"
         style="font-size:42.5731px;letter-spacing:0px;fill:#000000;fill-opacity:1;stroke-width:16.3842"
         x="1047.9423"
         y="870.45715">5X <tspan
   style="font-style:normal;font-variant:normal;font-weight:normal;font-stretch:normal;font-size:42.5731px;font-family:'Liberation Sans';-inkscape-font-specification:'Liberation Sans';letter-spacing:0px"
   id="tspan238-7">so schnell</tspan></tspan></text></g><g
     id="g230650"
     transform="translate(-456.1042,-469.32454)"
     inkscape:label="Secure"
     style="display:none"><text
       xml:space="preserve"
       style="font-style:normal;font-variant:normal;font-weight:bold;font-stretch:normal;font-size:42.5731px;font-family:'Liberation Sans';-inkscape-font-specification:'Liberation Sans Bold';text-align:center;letter-spacing:0px;writing-mode:lr-tb;direction:ltr;text-anchor:middle;display:block;fill:#fda53c;fill-opacity:1;stroke:none;stroke-width:16.3842;stroke-dasharray:none;stroke-opacity:1"
       x="1662.4828"
       y="832.95233"
       id="text237-5-1"
       inkscape:label="Prinzipien"><tspan
         sodipodi:role="line"
         id="tspan237-2-4"
         style="font-size:42.5731px;letter-spacing:0px;fill:#000000;fill-opacity:1;stroke-width:16.3842"
         x="1662.4828"
         y="832.95233"
         dx="0"
         dy="15">Bitcoin Prinzipien</tspan><tspan
         sodipodi:role="line"
         style="font-style:normal;font-variant:normal;font-weight:normal;font-stretch:normal;font-size:34.8325px;font-family:'Liberation Sans';-inkscape-font-specification:'Liberation Sans';letter-spacing:0px;fill:#000000;fill-opacity:1;stroke-width:16.3842"
         x="1662.4828"
         y="886.1687"
         id="tspan230646">Effizient neu gedacht</tspan></text><g
       id="g230647"
       transform="matrix(0.87419563,0,0,0.87419563,179.45187,105.46449)"
       inkscape:label="Shield"><path
         fill="#fe990c"
         d="m 1425.9,808.85 c 14.1102,8.50672 18.9963,10.54164 38.97,12.749 0.96,35.024 0.64,62.906 -37.55,77.604 -39.827,-14.33379 -39.8477,-47.23102 -39.34,-77.479 15.97,-2.264 24.21,-4.804 37.92,-12.874 z"
         id="path29"
         style="fill:#ff9107;fill-opacity:1"
         sodipodi:nodetypes="ccccc"
         inkscape:label="shield" /><text
         xml:space="preserve"
         style="font-style:normal;font-variant:normal;font-weight:bold;font-stretch:normal;font-size:54.1839px;font-family:'Palatino Linotype';-inkscape-font-specification:'Palatino Linotype Bold';text-align:center;letter-spacing:0px;writing-mode:lr-tb;direction:ltr;text-anchor:middle;fill:#ffffff;fill-opacity:1;stroke:none;stroke-width:16.3842;stroke-dasharray:none;stroke-opacity:1"
         x="1426.463"
         y="871.72296"
         id="text230644"
         inkscape:label="BTC-B"><tspan
           sodipodi:role="line"
           id="tspan230644"
           style="font-style:normal;font-variant:normal;font-weight:bold;font-stretch:normal;font-size:54.1839px;font-family:'Palatino Linotype';-inkscape-font-specification:'Palatino Linotype Bold';fill:#ffffff;fill-opacity:1;stroke-width:16.3842"
           x="1426.463"
           y="871.72296">₿</tspan></text></g></g><text
     xml:space="preserve"
     style="font-size:42.5731px;font-family:'Liberation Sans';-inkscape-font-specification:'Liberation Sans';letter-spacing:0px;writing-mode:lr-tb;direction:ltr;fill:none;fill-opacity:1;stroke:none;stroke-width:16.3842"
     x="1.6399536"
     y="242.36742"
     id="text5"
     inkscape:label="(c) EviLSeeD"><tspan
       sodipodi:role="line"
       id="tspan5"
       style="fill:none;fill-opacity:1;stroke:none;stroke-width:16.3842"
       x="1.6399536"
       y="242.36742">© EviLSeeD</tspan></text></svg>
